<svg xmlns="http://www.w3.org/2000/svg" xml:space="preserve" width="512" height="512" style="enable-background:new 0 0 512 512" viewBox="0 0 496 496">
  <path d="M464 144c17.648 0 32-14.352 32-32V96c0-17.648-14.352-32-32-32h-64V48c8.824 0 16-7.176 16-16V16c0-8.824-7.176-16-16-16H16C7.176 0 0 7.176 0 16v16c0 8.824 7.176 16 16 16v164.55L0 197.442V496h316.121L95.887 288H320v136c0 13.23 10.77 24 24 24h128c13.23 0 24-10.77 24-24V216c0-13.23-10.77-24-24-24h-72v-48zm-32-48H256V80h176zm-192 25.055L214.426 104 240 86.945zM256 112h176v16H256zm224-16v16c0 8.824-7.176 16-16 16h-16V80h16c8.824 0 16 7.176 16 16zM16 16h384l.008 16H16zm0 464v-16h16v-16H16v-16h16v-16H16v-16h16v-16H16v-16h16v-16H16v-16h16v-16H16v-16h16v-16H16v-53.441L275.879 480zm464-264v208c0 4.414-3.594 8-8 8H344c-4.406 0-8-3.586-8-8V216c0-4.414 3.594-8 8-8h128c4.406 0 8 3.586 8 8zm-96-24H248v16h73.473c-.899 2.512-1.473 5.184-1.473 8v8h-72v16h72v32H78.945L32 227.664V48h352v16H245.574l-60 40 60 40H384zm0 0" data-original="#000000"/>
  <path d="M168 96h-55L98.543 204.375 75.84 176H48v16h20.16l41.297 51.625L127 112h41zm0 0" data-original="#000000"/>
  <path d="M218.344 138.344 184 172.688l-34.344-34.344-11.312 11.312L172.688 184l-34.344 34.344 11.312 11.312L184 195.312l34.344 34.344 11.312-11.312L195.312 184l34.344-34.344zM248 160h120v16H248zM48 308.8V448h147.383zm16 37.122L155.145 432H64zM464 224H352v64h112zm-16 48h-80v-32h80zm-32 48h48v16h-48zm-64 48h48v16h-48zm0 32h48v16h-48zm16-48h16v-16h16v-16h-16v-16h-16v16h-16v16h16zm82.344 18.344L440 380.688l-10.344-10.344-11.312 11.312L428.688 392l-10.344 10.344 11.312 11.312L440 403.312l10.344 10.344 11.312-11.312L451.312 392l10.344-10.344zm0 0" data-original="#000000"/>
</svg>
